<svg xmlns="http://www.w3.org/2000/svg" width="32" height="32" viewBox="0 0 32 32">
  <defs>
    <linearGradient id="bg" x1="0%" y1="0%" x2="100%" y2="100%">
      <stop offset="0%" style="stop-color:#165DFF"/>
      <stop offset="100%" style="stop-color:#0F3FCC"/>
    </linearGradient>
  </defs>
  <rect width="32" height="32" rx="7" fill="url(#bg)"/>
  <path d="M16 6C13.2 6 11 8.2 11 11v2h-1c-.6 0-1 .4-1 1v11c0 .6.4 1 1 1h12c.6 0 1-.4 1-1V14c0-.6-.4-1-1-1h-1v-2c0-2.8-2.2-5-5-5zm0 2c1.7 0 3 1.3 3 3v2h-6v-2c0-1.7 1.3-3 3-3zm0 10c.6 0 1 .4 1 1v2c0 .6-.4 1-1 1s-1-.4-1-1v-2c0-.6.4-1 1-1z" fill="white"/>
</svg>
